<svg width="13" height="17" viewBox="0 0 13 17" fill="none" xmlns="http://www.w3.org/2000/svg">
<path d="M1.44528 4.23241C1.44528 5.90041 1.44078 7.56755 1.44528 9.23455C1.46781 11.9976 3.44918 14.7149 6.29453 15.51C6.37923 15.533 6.45131 15.5755 6.56665 15.5472C9.36875 14.8194 11.5467 12.1429 11.5548 9.1992V6.36156C11.5575 6.30313 11.5566 6.28896 11.5674 6.23142C11.6602 5.74093 12.3621 5.47799 12.7639 5.83743C12.9117 5.96935 12.9901 6.16324 13 6.36156V9.20079C12.991 12.6227 10.5933 15.8808 7.1416 16.8636C7.04428 16.891 6.94697 16.9167 6.84877 16.9406L6.67487 16.984C6.40635 17.0389 6.13244 16.9415 5.85853 16.8636C2.60939 15.9375 0.115455 12.8564 0.0045056 9.45577C0.00180244 9.37077 0.000901204 9.28578 0 9.20079V3.52301C0.0180209 3.14231 0.333379 2.83067 0.722624 2.81296C1.53265 2.81296 2.34447 2.85192 3.10492 2.63058C4.28168 2.28796 5.29713 1.45484 5.85213 0.370283C5.85213 0.370283 5.87105 0.336639 5.88096 0.318047C6.17831 -0.120201 6.90004 -0.112223 7.15501 0.383562C7.16402 0.401269 7.17303 0.41809 7.18204 0.435798C7.9344 1.84349 9.49491 2.80858 11.1737 2.81198H12.2765C12.8478 2.83766 13.219 3.55834 12.8099 3.99924C12.7045 4.11345 12.5631 4.19047 12.409 4.2188C12.3504 4.22943 12.3351 4.22854 12.2765 4.2312C11.3539 4.2312 10.4312 4.25422 9.55723 4.01163C8.35706 3.67873 7.2704 2.96515 6.49909 2.00189C5.40523 3.36709 3.64554 4.22765 1.8263 4.23119H1.44427L1.44528 4.23241Z" fill="#666666"/>
<path d="M6.5 5C4.56674 5 3 6.56674 3 8.5C3 10.4333 4.56674 12 6.5 12C8.43326 12 10 10.4333 10 8.5C10 6.56674 8.43326 5 6.5 5ZM6.5 6.4C6.65477 6.4 6.78 6.52523 6.78 6.68V6.855C7.14695 6.93648 7.42859 7.16563 7.58063 7.41937C7.61891 7.4828 7.6304 7.55937 7.61235 7.63155C7.5943 7.70374 7.54837 7.76608 7.48438 7.80437C7.4204 7.84265 7.34438 7.85413 7.2722 7.83609C7.20001 7.81804 7.13767 7.77155 7.09938 7.70812C7.04087 7.61077 6.92875 7.50578 6.78001 7.44125V8.29875C6.92438 8.34961 7.07315 8.40484 7.22188 8.49562C7.43134 8.62304 7.62001 8.88116 7.62001 9.19999C7.62001 9.49256 7.48384 9.75671 7.27438 9.92624C7.13329 10.04 6.96486 10.1166 6.78001 10.1537V10.32C6.78001 10.4748 6.65478 10.6 6.50001 10.6C6.34525 10.6 6.22001 10.4748 6.22001 10.32V10.145C5.85306 10.0624 5.57142 9.82999 5.41938 9.57624C5.33954 9.44335 5.38274 9.27108 5.51563 9.19124C5.64852 9.11139 5.82079 9.1546 5.90063 9.28749C5.95915 9.38483 6.07126 9.49312 6.22 9.55874V8.69687C6.07563 8.64601 5.92687 8.59077 5.77813 8.5C5.56868 8.37258 5.38 8.11882 5.38 7.8C5.38 7.50743 5.51617 7.23891 5.72563 7.06937C5.86618 6.95562 6.03516 6.88234 6.22 6.84624V6.67999C6.22 6.52522 6.34523 6.39999 6.5 6.39999V6.4ZM6.22 7.42813C6.16531 7.44891 6.11773 7.47626 6.08 7.50688C5.98758 7.58126 5.94 7.66875 5.94 7.80001C5.94 7.94713 5.96352 7.95751 6.07125 8.02315C6.10953 8.04611 6.16148 8.06963 6.22 8.09315V7.42813ZM6.78 8.90247V9.56747C6.83469 9.5456 6.88227 9.51935 6.92 9.48872C7.01188 9.41435 7.06 9.33122 7.06 9.19997C7.06 9.05286 7.03648 9.0381 6.92875 8.97247C6.89047 8.9495 6.83852 8.92599 6.78 8.90247Z" fill="#666666"/>
</svg>
