<svg width="13" height="17" viewBox="0 0 13 17" fill="none" xmlns="http://www.w3.org/2000/svg">
<path d="M1.44528 4.23241C1.44528 5.90041 1.44078 7.56755 1.44528 9.23455C1.46781 11.9976 3.44918 14.7149 6.29453 15.51C6.37923 15.533 6.45131 15.5755 6.56665 15.5472C9.36875 14.8194 11.5467 12.1429 11.5548 9.1992V6.36156C11.5575 6.30313 11.5566 6.28896 11.5674 6.23142C11.6602 5.74093 12.3621 5.47799 12.7639 5.83743C12.9117 5.96935 12.9901 6.16324 13 6.36156V9.20079C12.991 12.6227 10.5933 15.8808 7.1416 16.8636C7.04428 16.891 6.94697 16.9167 6.84877 16.9406L6.67487 16.984C6.40635 17.0389 6.13244 16.9415 5.85853 16.8636C2.60939 15.9375 0.115455 12.8564 0.0045056 9.45577C0.00180244 9.37077 0.000901204 9.28578 0 9.20079V3.52301C0.0180209 3.14231 0.333379 2.83067 0.722624 2.81296C1.53265 2.81296 2.34447 2.85192 3.10492 2.63058C4.28168 2.28796 5.29713 1.45484 5.85213 0.370283C5.85213 0.370283 5.87105 0.336639 5.88096 0.318047C6.17831 -0.120201 6.90004 -0.112223 7.15501 0.383562C7.16402 0.401269 7.17303 0.41809 7.18204 0.435798C7.9344 1.84349 9.49491 2.80858 11.1737 2.81198H12.2765C12.8478 2.83766 13.219 3.55834 12.8099 3.99924C12.7045 4.11345 12.5631 4.19047 12.409 4.2188C12.3504 4.22943 12.3351 4.22854 12.2765 4.2312C11.3539 4.2312 10.4312 4.25422 9.55723 4.01163C8.35706 3.67873 7.2704 2.96515 6.49909 2.00189C5.40523 3.36709 3.64554 4.22765 1.8263 4.23119H1.44427L1.44528 4.23241ZM8.6932 7.07073C9.22841 7.1026 9.62488 7.79936 9.20138 8.2571C9.19327 8.26596 9.18516 8.27304 9.17795 8.28189L6.28935 11.1202C6.19745 11.207 6.1614 11.2247 6.09383 11.2566C5.84695 11.3752 5.53158 11.3389 5.31803 11.1654C5.29461 11.1459 5.2892 11.1415 5.26758 11.1202L3.82323 9.70189C3.52588 9.39467 3.56823 8.83868 3.94577 8.60228C4.21968 8.43053 4.60353 8.47302 4.84499 8.69879L5.77846 9.61601L8.15638 7.27949C8.15638 7.27949 8.44561 7.06878 8.69339 7.07232L8.6932 7.07073Z" fill="#666666"/>
</svg>
